Patient4_TMGait_0pt6_01_left_26_GRF.mot
version=1
nRows=58
nColumns=19
inDegrees=no
endheader
time	F1x	F1y	F1z	M1x	M1y	M1z	F2x	F2y	F2z	M2x	M2y	M2z	EC1x	EC1y	EC1z	EC2x	EC2y	EC2z
31.63	2.8847	2.9404	-1.2435	-1.4708	1.1534	10.0609	-44.247	691.4432	-53.2828	263.9453	63.7501	690.2259	-0.0592	0.0182	-0.0073	-0.0462	0.0165	0.9585
31.6423	1.9396	2.7218	-0.68731	-1.3043	0.59106	7.4919	-38.7957	690.3842	-53.9176	263.2186	63.4296	686.0321	-0.0592	0.0182	-0.0073	-0.0462	0.0165	0.9585
31.6546	1.1105	2.5545	-0.28038	-1.1524	0.16844	5.3389	-33.5898	691.2552	-54.2609	263.2601	62.674	683.064	-0.0592	0.0182	-0.0073	-0.0462	0.0165	0.9585
31.6669	0.45845	2.444	-0.0092757	-1.0361	-0.11937	3.7237	-28.8968	694.9391	-54.3031	264.4695	61.5343	682.2288	-0.0592	0.0182	-0.0073	-0.0462	0.0165	0.9585
31.6791	-0.01274	2.3934	0.14512	-0.96415	-0.28931	2.6406	-24.792	701.8974	-54.1282	267.0683	60.1403	684.0288	-0.0592	0.0182	-0.0073	-0.0462	0.0165	0.9585
31.6914	-0.33312	2.3932	0.21702	-0.9317	-0.37864	2.0179	-21.1898	712.0272	-53.8505	271.042	58.6201	688.3951	-0.0592	0.0182	-0.0073	-0.0462	0.0165	0.9585
31.7037	-0.5428	2.4138	0.23065	-0.92333	-0.41585	1.7262	-17.9054	724.6836	-53.5881	276.1453	57.0698	694.7309	-0.0592	0.0182	-0.0073	-0.0462	0.0165	0.9585
31.716	-0.70331	2.4179	0.21067	-0.91912	-0.43289	1.64	-14.6874	738.7473	-53.4217	281.938	55.5177	701.9933	-0.0592	0.0182	-0.0073	-0.0462	0.0165	0.9585
31.7283	-0.84672	2.338	0.17522	-0.89046	-0.44893	1.6035	-11.2717	752.8256	-53.3852	287.8658	53.9326	708.9154	-0.0592	0.0182	-0.0073	-0.0462	0.0165	0.9585
31.7406	-1.0083	2.1073	0.13147	-0.80666	-0.47435	1.483	-7.44	765.5219	-53.4536	293.3675	52.2311	714.2519	-0.0592	0.0182	-0.0073	-0.0462	0.0165	0.9585
31.7529	-1.1913	1.6253	0.088027	-0.62899	-0.51151	1.1122	-3.0827	775.6506	-53.5669	297.9578	50.3279	716.9899	-0.0592	0.0182	-0.0073	-0.0462	0.0165	0.9585
31.7651	-1.3949	0.79769	0.041787	-0.32035	-0.55091	0.36952	1.7455	782.3881	-53.6444	301.2842	48.1712	716.5117	-0.0592	0.0182	-0.0073	-0.0462	0.0165	0.9585
31.7774	-1.5709	-0.45532	-0.00034372	0.15194	-0.57954	-0.86771	6.847	785.3099	-53.6351	303.1397	45.7879	712.6122	-0.0592	0.0182	-0.0073	-0.0462	0.0165	0.9585
31.7897	-1.669	-2.1675	-0.04377	0.80168	-0.56812	-2.6378	11.9072	784.3439	-53.5253	303.4475	43.2817	705.4397	-0.0592	0.0182	-0.0073	-0.0462	0.0165	0.9585
31.802	-1.573	-4.289	-0.084134	1.6098	-0.47774	-4.8856	16.591	779.6518	-53.3652	302.2239	40.8236	695.3396	-0.0592	0.0182	-0.0073	-0.0462	0.0165	0.9585
31.8143	-1.1496	-6.5938	-0.12798	2.4915	-0.2524	-7.3531	20.5907	771.6762	-53.2201	299.6003	38.5971	682.8961	-0.0592	0.0182	-0.0073	-0.0462	0.0165	0.9585
31.8266	-0.21386	-8.6316	-0.17378	3.2744	0.16896	-9.5593	23.7091	761.1563	-53.1675	295.8365	36.7671	668.8798	-0.0592	0.0182	-0.0073	-0.0462	0.0165	0.9585
31.8389	1.435	-9.6205	-0.22577	3.6599	0.86024	-10.6482	25.8534	749.1055	-53.2731	291.3095	35.4477	654.2493	-0.0592	0.0182	-0.0073	-0.0462	0.0165	0.9585
31.8511	3.9989	-8.407	-0.2631	3.2032	1.8732	-9.3673	27.094	736.6029	-53.5923	286.4415	34.6885	639.9432	-0.0592	0.0182	-0.0073	-0.0462	0.0165	0.9585
31.8634	7.5918	-3.4106	-0.26291	1.2938	3.2266	-4.0023	27.6169	724.6218	-54.1354	281.6296	34.4479	626.7494	-0.0592	0.0182	-0.0073	-0.0462	0.0165	0.9585
31.8757	12.1721	7.3094	-0.17348	-2.8179	4.8513	7.5598	27.7345	713.8186	-54.8556	277.161	34.589	615.132	-0.0592	0.0182	-0.0073	-0.0462	0.0165	0.9585
31.888	17.3973	25.8609	0.057159	-9.9433	6.5592	27.6241	27.7712	704.3638	-55.6469	273.1412	34.9097	605.1314	-0.0592	0.0182	-0.0073	-0.0462	0.0165	0.9585
31.9003	22.4529	54.1137	0.4985	-20.8012	7.9622	58.2449	28.0119	695.7757	-56.3351	269.4294	35.1577	596.2061	-0.0592	0.0182	-0.0073	-0.0462	0.0165	0.9585
31.9126	25.882	93.0034	1.2177	-35.7536	8.4257	100.4727	28.619	686.8927	-56.6838	265.6228	35.0662	587.2644	-0.0592	0.0182	-0.0073	-0.0462	0.0165	0.9585
31.9249	25.6545	141.7577	2.2962	-54.507	7.0953	153.5033	29.6409	675.9864	-56.4123	261.1	34.3757	576.7557	-0.0592	0.0182	-0.0073	-0.0462	0.0165	0.9585
31.9371	20.3373	197.7766	3.8341	-76.0598	3.3388	214.5433	30.9995	661.1078	-55.2311	255.1476	32.8742	562.9858	-0.0592	0.0182	-0.0073	-0.0462	0.0165	0.9585
31.9494	10.7607	257.0082	6.0035	-98.8276	-2.71	279.1192	32.5281	640.4528	-52.9377	247.0943	30.4583	544.4101	-0.0592	0.0182	-0.0073	-0.0462	0.0165	0.9585
31.9617	-0.48093	313.9064	9.2601	-120.6457	-10.542	340.9302	34.0044	612.642	-49.4982	236.4109	27.1813	519.8743	-0.0592	0.0182	-0.0073	-0.0462	0.0165	0.9585
31.974	-11.2454	363.7382	13.8005	-139.6884	-19.4871	394.5042	35.189	576.9034	-45.0843	222.7821	23.2673	488.752	-0.0592	0.0182	-0.0073	-0.0462	0.0165	0.9585
31.9863	-20.2497	405.1793	18.8584	-155.4745	-28.2232	438.1854	35.8379	533.327	-39.9952	206.1987	19.0341	451.1573	-0.0592	0.0182	-0.0073	-0.0462	0.0165	0.9585
31.9986	-26.8587	439.3853	23.9053	-168.4829	-35.917	473.2409	35.7573	482.7836	-34.6447	186.9425	14.87	407.8468	-0.0592	0.0182	-0.0073	-0.0462	0.0165	0.9585
32.0109	-31.0205	468.5478	28.3306	-179.5981	-41.9146	502.0964	34.7514	426.809	-29.3633	165.5544	11.0918	360.1284	-0.0592	0.0182	-0.0073	-0.0462	0.0165	0.9585
32.0231	-33.0436	495.077	31.962	-189.7598	-46.1541	527.4096	32.6322	367.4402	-24.3601	142.7836	7.9251	309.7321	-0.0592	0.0182	-0.0073	-0.0462	0.0165	0.9585
32.0354	-33.3421	521.2063	34.6763	-199.8299	-48.7002	551.6156	29.2791	307.0805	-19.7567	119.541	5.5108	258.6859	-0.0592	0.0182	-0.0073	-0.0462	0.0165	0.9585
32.0477	-32.4264	548.8552	36.63	-210.5182	-49.9372	576.8462	24.7526	248.3432	-15.6559	96.8348	3.9149	209.1759	-0.0592	0.0182	-0.0073	-0.0462	0.0165	0.9585
32.06	-30.7803	579.309	38.0506	-222.278	-50.3176	604.5334	19.3951	193.7824	-12.1391	75.6638	3.0813	163.3038	-0.0592	0.0182	-0.0073	-0.0462	0.0165	0.9585
32.0723	-28.8504	612.8833	39.2823	-235.1795	-50.3833	635.1197	13.762	145.4797	-9.2288	56.8571	2.8196	122.7665	-0.0592	0.0182	-0.0073	-0.0462	0.0165	0.9585
32.0846	-26.9889	648.8205	40.7024	-248.8828	-50.6675	667.8966	8.4957	104.689	-6.9001	40.9291	2.8725	88.5566	-0.0592	0.0182	-0.0073	-0.0462	0.0165	0.9585
32.0969	-25.4834	685.5788	42.613	-262.7525	-51.5863	701.3453	4.0859	71.7227	-5.0687	28.0305	2.9922	60.8884	-0.0592	0.0182	-0.0073	-0.0462	0.0165	0.9585
32.1091	-24.3879	721.2981	45.1202	-276.0527	-53.2689	733.6116	0.7692	46.1747	-3.6197	18.0268	3.0015	39.4041	-0.0592	0.0182	-0.0073	-0.0462	0.0165	0.9585
32.1214	-23.5907	754.2125	48.0462	-288.103	-55.4949	762.9477	-1.4268	27.2174	-2.4624	10.6078	2.8206	23.4225	-0.0592	0.0182	-0.0073	-0.0462	0.0165	0.9585
32.1337	-22.9054	782.6681	51.1032	-298.2855	-57.9017	787.7113	-2.5973	13.8389	-1.5381	5.3832	2.4431	12.1066	-0.0592	0.0182	-0.0073	-0.0462	0.0165	0.9585
32.146	-22.1902	805.194	53.9351	-306.06	-60.0731	806.481	-2.936	5.0417	-0.8277	1.9566	1.9324	4.6371	-0.0592	0.0182	-0.0073	-0.0462	0.0165	0.9585
32.1583	-21.3153	820.5928	56.3515	-310.991	-61.7661	818.1256	-2.7189	-0.12945	-0.33301	-0.051595	1.4012	0.21739	-0.0592	0.0182	-0.0073	-0.0462	0.0165	0.9585
32.1706	-20.2251	828.1411	58.2266	-312.8261	-62.8248	821.989	-2.2428	-2.6187	-0.017241	-1.0144	0.92448	-1.9313	-0.0592	0.0182	-0.0073	-0.0462	0.0165	0.9585
32.1829	-18.8659	827.7492	59.6044	-311.5561	-63.2665	818.0384	-1.6853	-3.319	0.15191	-1.281	0.5436	-2.5569	-0.0592	0.0182	-0.0073	-0.0462	0.0165	0.9585
32.1951	-17.2181	820.1046	60.4759	-307.4708	-63.0796	807.003	-1.1727	-2.9537	0.22578	-1.1354	0.26675	-2.2509	-0.0592	0.0182	-0.0073	-0.0462	0.0165	0.9585
32.2074	-15.3126	806.6581	60.8975	-301.1472	-62.3406	790.3621	-0.75219	-2.0779	0.23607	-0.79167	0.09476	-1.4916	-0.0592	0.0182	-0.0073	-0.0462	0.0165	0.9585
32.2197	-13.2037	789.3985	60.8745	-293.3664	-61.0871	770.0921	-0.44118	-1.0425	0.21664	-0.38654	0.0060745	-0.57804	-0.0592	0.0182	-0.0073	-0.0462	0.0165	0.9585
32.232	-10.9465	770.493	60.5097	-284.9678	-59.4517	748.3208	-0.2209	-0.067163	0.17882	-0.0035784	-0.021611	0.29373	-0.0592	0.0182	-0.0073	-0.0462	0.0165	0.9585
32.2443	-8.6061	751.9667	59.9066	-276.732	-57.565	726.9912	-0.080167	0.7496	0.13768	0.31795	-0.015932	1.0393	-0.0592	0.0182	-0.0073	-0.0462	0.0165	0.9585
32.2566	-6.252	735.4809	59.2112	-269.2957	-55.6002	707.6809	0.0028119	1.3818	0.093538	0.56637	0.010173	1.6326	-0.0592	0.0182	-0.0073	-0.0462	0.0165	0.9585
32.2689	-3.9238	722.2271	58.5067	-263.1165	-53.6571	691.4897	0.04334	1.8441	0.060513	0.74642	0.034458	2.0842	-0.0592	0.0182	-0.0073	-0.0462	0.0165	0.9585
32.2811	-1.6557	712.9026	57.8671	-258.4601	-51.8194	679.0376	0.049274	2.1646	0.038342	0.86941	0.053695	2.4191	-0.0592	0.0182	-0.0073	-0.0462	0.0165	0.9585
32.2934	0.53673	707.685	57.3276	-255.3944	-50.1233	670.4479	0.040451	2.3774	0.028362	0.95062	0.0639	2.6634	-0.0592	0.0182	-0.0073	-0.0462	0.0165	0.9585
32.3057	2.67	706.3116	56.9266	-253.8127	-48.5959	665.4362	0.013288	2.5031	0.025016	0.99998	0.073171	2.8308	-0.0592	0.0182	-0.0073	-0.0462	0.0165	0.9585
32.318	4.7618	708.152	56.6856	-253.4692	-47.2404	663.3694	-0.024983	2.5448	0.024659	1.0195	0.085335	2.9035	-0.0592	0.0182	-0.0073	-0.0462	0.0165	0.9585
32.3303	6.8437	712.3487	56.6119	-254.0313	-46.0449	663.4229	-0.085089	2.4946	0.016134	1.0033	0.11436	2.8655	-0.0592	0.0182	-0.0073	-0.0462	0.0165	0.9585
